<svg xmlns="http://www.w3.org/2000/svg" viewBox="0 0 75.45 11.44"><defs><style>.cls-1{fill:#1a1a1a;}</style></defs><g id="Layer_2" data-name="Layer 2"><g id="Layer_1-2" data-name="Layer 1"><path class="cls-1" d="M8.46,6.47a3,3,0,0,1,.82.86,2,2,0,0,1,.27,1A2.37,2.37,0,0,1,8.87,10a3.45,3.45,0,0,1-2.5,1c-.62,0-1.48,0-2.6,0H0V9.16l0-2.92L0,3.07,0,.59H4.09c1,0,1.72,0,2.1.05A5.24,5.24,0,0,1,7.38.88a4,4,0,0,1,1.21.6,3.17,3.17,0,0,1,.88.87A2.88,2.88,0,0,1,10,4a2.8,2.8,0,0,1-.41,1.49A2.46,2.46,0,0,1,8.46,6.47Zm-.62.19a2.72,2.72,0,0,1-.61.07,1.94,1.94,0,0,1-1-.2A.57.57,0,0,1,5.89,6q0-.18.12-.18a.69.69,0,0,1,.25.08,2.58,2.58,0,0,0,1.14.26A1.9,1.9,0,0,0,9.1,5.3,2.3,2.3,0,0,0,9.46,4a2.46,2.46,0,0,0-.84-1.87,3.61,3.61,0,0,0-1.44-.82,7.33,7.33,0,0,0-2.09-.25H4.67l0,4.58,0,4.82h.68a9,9,0,0,0,1.77-.13,2.5,2.5,0,0,0,1-.43A1.92,1.92,0,0,0,9,8.33a1.56,1.56,0,0,0-.3-.92A2.89,2.89,0,0,0,7.84,6.66Z"/><path class="cls-1" d="M16.6,5.92V5c0-.65,0-1.05,0-1.19a.91.91,0,0,0-.14-.4c-.18-.28-.61-.43-1.28-.43a3,3,0,0,0-2.41,1c-.23.26-.42.4-.58.4a.38.38,0,0,1-.3-.13.35.35,0,0,1-.13-.28c0-.32.38-.65,1.13-1a7,7,0,0,1,2.8-.49,6.92,6.92,0,0,1,4,.86,1.78,1.78,0,0,1,.66.84,6,6,0,0,1,.15,1.63v3a6.38,6.38,0,0,0,.05,1.26,2.69,2.69,0,0,0,.36.91H16.59v-.8a6,6,0,0,1-1.39.73,4.11,4.11,0,0,1-1.36.24,3.28,3.28,0,0,1-2-.66,2.69,2.69,0,0,1-1.15-2.26,2.42,2.42,0,0,1,.93-2,4.11,4.11,0,0,1,2.69-.89,5.11,5.11,0,0,1,1.16.12A5.21,5.21,0,0,1,16.6,5.92Zm0,.55A3.71,3.71,0,0,0,15.11,6a.55.55,0,0,0-.58.35,4.47,4.47,0,0,0-.07,1.1V9.26a5,5,0,0,0,0,.74.47.47,0,0,0,.52.35,1.76,1.76,0,0,0,.78-.21,3.07,3.07,0,0,0,.79-.56Z"/><path class="cls-1" d="M26.69,2.67V6.3a25.82,25.82,0,0,1-.08,2.59A3,3,0,0,1,26.14,10a3.18,3.18,0,0,1-2.81,1.4A3,3,0,0,1,21.69,11c-.33-.21-.49-.43-.49-.65a.36.36,0,0,1,.09-.24.34.34,0,0,1,.22-.1.26.26,0,0,1,.2.07,4,4,0,0,1,.26.4.6.6,0,0,0,.52.34.29.29,0,0,0,.27-.12,1,1,0,0,0,.09-.45l0-2.39,0-2.5V2.67ZM24.74,0c1.33,0,2,.35,2,1.05a.89.89,0,0,1-.53.8,3.23,3.23,0,0,1-1.5.28c-1.27,0-1.91-.36-1.91-1.08S23.44,0,24.74,0Z"/><path class="cls-1" d="M32.24,2.46a4.38,4.38,0,0,1,2.33.68,4.13,4.13,0,0,1,1.55,1.71,4.54,4.54,0,0,1,.47,2,4,4,0,0,1-.28,1.47,4.37,4.37,0,0,1-.76,1.31,4,4,0,0,1-1.64,1.18A4.34,4.34,0,0,1,28.3,8.62a4.42,4.42,0,0,1-.39-1.83,4.09,4.09,0,0,1,1.38-3.15A4.39,4.39,0,0,1,32.24,2.46ZM32,3l0,7.69.33,0a3.83,3.83,0,0,0,2-.6,3.62,3.62,0,0,0,1.39-1.54,3.76,3.76,0,0,0,.37-1.68,3.7,3.7,0,0,0-1.36-3,3.61,3.61,0,0,0-2.39-.92Z"/><path class="cls-1" d="M40.83,7.08V9.44a2.9,2.9,0,0,0,.08.87c.11.23.36.35.76.35a3.49,3.49,0,0,0,1.75-.49,4.84,4.84,0,0,0,1.5-1.33,2,2,0,0,1,.29-.36.32.32,0,0,1,.2-.08.27.27,0,0,1,.22.1.36.36,0,0,1,.08.24,1.51,1.51,0,0,1-.51.86,5.18,5.18,0,0,1-1.67,1.13,4.8,4.8,0,0,1-1.94.43,4.18,4.18,0,0,1-2.86-1.09,4.1,4.1,0,0,1-1.12-1.58,4.19,4.19,0,0,1-.34-1.64,4.48,4.48,0,0,1,.3-1.59,4.56,4.56,0,0,1,.84-1.38,4.3,4.3,0,0,1,1.47-1,4.14,4.14,0,0,1,1.73-.37,4.26,4.26,0,0,1,2.56.83,4.33,4.33,0,0,1,1.77,3.76H41.87Zm2-.51V4.35c0-.48,0-.76,0-.86a.46.46,0,0,0-.11-.26c-.14-.2-.43-.29-.87-.29s-.72.11-.83.34a3,3,0,0,0-.11,1.07V6.57l.93,0Z"/><path class="cls-1" d="M53.79,4.26l.86,1.44.83,1.4c.82,1.36,1.38,2.25,1.67,2.68a9,9,0,0,0,1,1.21H53.61L52.2,8.53c-.51-.92-.91-1.58-1.18-2V8.26l0,2.38V11H47.13l0-3.67V5.2l0-4.25V.59h3.92l0,5V6C52.43,4.73,53.41,3.9,54,3.5a3.21,3.21,0,0,1,1.83-.79c.39,0,.59.14.59.42a.35.35,0,0,1-.11.26.35.35,0,0,1-.26.1.64.64,0,0,1-.22,0,1.3,1.3,0,0,0-.32-.06,1.52,1.52,0,0,0-.68.19A6.58,6.58,0,0,0,53.79,4.26Z"/><path class="cls-1" d="M61.75,2.46a4.41,4.41,0,0,1,2.33.68,4.11,4.11,0,0,1,1.54,1.71,4.42,4.42,0,0,1,.48,2,4.25,4.25,0,0,1-.28,1.47,4.59,4.59,0,0,1-.76,1.31,4.11,4.11,0,0,1-1.64,1.18,4.36,4.36,0,0,1-4.25-.52,4.17,4.17,0,0,1-1.36-1.69,4.42,4.42,0,0,1-.39-1.83,4.11,4.11,0,0,1,1.37-3.15A4.44,4.44,0,0,1,61.75,2.46ZM61.53,3l0,7.69.33,0a3.77,3.77,0,0,0,2-.6,3.65,3.65,0,0,0,1.4-1.54,3.9,3.9,0,0,0,.36-1.68,3.72,3.72,0,0,0-1.35-3,3.61,3.61,0,0,0-2.39-.92Z"/><path class="cls-1" d="M70.34,7.08V9.44a2.59,2.59,0,0,0,.08.87c.11.23.36.35.76.35a3.52,3.52,0,0,0,1.75-.49,4.69,4.69,0,0,0,1.49-1.33,2.44,2.44,0,0,1,.3-.36.32.32,0,0,1,.2-.08.24.24,0,0,1,.21.1.32.32,0,0,1,.09.24,1.51,1.51,0,0,1-.51.86A5.29,5.29,0,0,1,73,10.73a4.8,4.8,0,0,1-1.94.43,4.27,4.27,0,0,1-4-2.67,4.19,4.19,0,0,1-.34-1.64,4.48,4.48,0,0,1,.3-1.59,4.19,4.19,0,0,1,.84-1.38,4.36,4.36,0,0,1,1.46-1,4.22,4.22,0,0,1,1.74-.37,4.31,4.31,0,0,1,4.32,4.59H71.38Zm2-.51V4.35c0-.48,0-.76,0-.86a.54.54,0,0,0-.11-.26c-.14-.2-.43-.29-.87-.29s-.72.11-.84.34a3.15,3.15,0,0,0-.1,1.07V6.57l.93,0Z"/></g></g></svg>